{
	"asset":{
		"generator":"Khronos glTF Blender I/O v4.1.63",
		"version":"2.0"
	},
	"scene":0,
	"scenes":[
		{
			"name":"Scene",
			"nodes":[
				0
			]
		}
	],
	"nodes":[
		{
			"mesh":0,
			"name":"Cube",
			"rotation":[
				0,
				0,
				-0.3826834559440613,
				0.9238795638084412
			],
			"scale":[
				3.309948444366455,
				3.309948444366455,
				3.309948682785034
			]
		}
	],
	"materials":[
		{
			"doubleSided":true,
			"name":"Material.001",
			"pbrMetallicRoughness":{
				"baseColorTexture":{
					"index":0
				},
				"roughnessFactor":0.26363635063171387
			}
		}
	],
	"meshes":[
		{
			"name":"Cube.001",
			"primitives":[
				{
					"attributes":{
						"POSITION":0,
						"NORMAL":1,
						"TEXCOORD_0":2
					},
					"indices":3,
					"material":0
				}
			]
		}
	],
	"textures":[
		{
			"sampler":0,
			"source":0
		}
	],
	"images":[
		{
			"mimeType":"image/png",
			"name":"Untitled",
			"uri":"texture/Untitled.png"
		}
	],
	"accessors":[
		{
			"bufferView":0,
			"componentType":5126,
			"count":2126,
			"max":[
				1.058939814567566,
				2.301328182220459,
				1.058939814567566
			],
			"min":[
				-2.301328182220459,
				-1.058939814567566,
				-1.058939814567566
			],
			"type":"VEC3"
		},
		{
			"bufferView":1,
			"componentType":5126,
			"count":2126,
			"type":"VEC3"
		},
		{
			"bufferView":2,
			"componentType":5126,
			"count":2126,
			"type":"VEC2"
		},
		{
			"bufferView":3,
			"componentType":5123,
			"count":10560,
			"type":"SCALAR"
		}
	],
	"bufferViews":[
		{
			"buffer":0,
			"byteLength":25512,
			"byteOffset":0,
			"target":34962
		},
		{
			"buffer":0,
			"byteLength":25512,
			"byteOffset":25512,
			"target":34962
		},
		{
			"buffer":0,
			"byteLength":17008,
			"byteOffset":51024,
			"target":34962
		},
		{
			"buffer":0,
			"byteLength":21120,
			"byteOffset":68032,
			"target":34963
		}
	],
	"samplers":[
		{
			"magFilter":9729,
			"minFilter":9987
		}
	],
	"buffers":[
		{
			"byteLength":89152,
			"uri":"heart.bin"
		}
	]
}
